<svg width="1138" height="359" viewBox="0 0 1138 359" fill="none" xmlns="http://www.w3.org/2000/svg">
<g id="Group 2">
<g id="path6-9-6" filter="url(#filter0_d)">
<path d="M956.51 0L913.5 55.5L820 183.773L766 257.678H971.195C971.195 257.678 993.829 258.852 1006 251.875C1079.27 209.871 1102.78 155.871 1098.28 139.871C1098.28 139.871 1093.5 104.374 1033.01 56C1021.65 46.917 993.817 26.895 956.51 0ZM973.709 102.283L1006.21 125.783C1006.21 125.783 1021.12 139.41 1021.12 150.437C1021.12 176.419 987.824 183.682 987.824 183.682H910.719L942.214 142.982L973.709 102.283Z" fill="#67B774"/>
</g>
<path id="path12-7" d="M908.968 62L820 184H908.802H908.968L971.587 103.108L908.968 62C908.968 62 984.135 111.985 971.587 103.108C948.528 86.7934 908.968 62 908.968 62Z" fill="url(#paint0_linear)"/>
<g id="TecDev" filter="url(#filter1_d)">
<path d="M810.34 269.43H795.223V349H781.57V269.43H766.453V257.301H810.34V269.43ZM854.93 341.676C854.93 346.559 852.41 349 847.371 349H824.227C819.188 349 816.668 346.559 816.668 341.676V297.145C816.668 292.262 819.188 289.82 824.227 289.82H847.371C852.41 289.82 854.93 292.262 854.93 297.145V318.883L851.238 322.574H829.5V339.156H842.098V329.312H854.93V341.676ZM842.098 313.844V299.664H829.5V313.844H842.098ZM902.977 341.676C902.977 346.559 900.496 349 895.535 349H872.273C867.234 349 864.715 346.559 864.715 341.676V297.145C864.715 292.262 867.234 289.82 872.273 289.82H895.535C900.496 289.82 902.977 292.262 902.977 297.145V311.207H889.91V301.012H877.898V337.867H889.91V326.559H902.977V341.676ZM959.051 331.715C959.051 337.105 957.449 341.344 954.246 344.43C951.043 347.477 946.727 349 941.297 349H913.348V257.301H941.297C946.727 257.301 951.043 258.863 954.246 261.988C957.449 265.074 959.051 269.312 959.051 274.703V331.715ZM945.281 329.43V276.754C945.281 271.637 942.605 269.078 937.254 269.078H927.059V337.223H936.902C942.488 337.223 945.281 334.625 945.281 329.43ZM1007.27 341.676C1007.27 346.559 1004.75 349 999.715 349H976.57C971.531 349 969.012 346.559 969.012 341.676V297.145C969.012 292.262 971.531 289.82 976.57 289.82H999.715C1004.75 289.82 1007.27 292.262 1007.27 297.145V318.883L1003.58 322.574H981.844V339.156H994.441V329.312H1007.27V341.676ZM994.441 313.844V299.664H981.844V313.844H994.441ZM1057.14 289.82L1042.02 349.117H1029.19L1014.07 289.82H1027.84L1035.63 328.727L1043.43 289.82H1057.14Z" fill="#EFF6F0"/>
</g>
<g id="Vector 3" filter="url(#filter2_d)">
<path d="M766 157.5V257L698 350.5V156.5H572L625 84H893.5L839 157.5H766Z" fill="#EFF7F0"/>
<path d="M766 157.5V257L698 350.5V156.5H572L625 84H893.5L839 157.5H766Z" fill="url(#paint1_linear)"/>
</g>
<g id="Vector 1" filter="url(#filter3_d)">
<path d="M751 84H625L572 157H698.5L751 84Z" fill="#67B774"/>
</g>
<g id="Powred By" filter="url(#filter4_d)">
<path d="M87.0625 226.778C87.0625 233.907 83.5713 237.472 76.5889 237.472H48.8301V279H31.6914V164.376H76.5889C83.5713 164.376 87.0625 167.892 87.0625 174.923V226.778ZM69.7773 222.75V179.098H48.8301V222.75H69.7773ZM147.121 269.845C147.121 275.948 144.021 279 137.819 279H107.79C101.491 279 98.3418 275.948 98.3418 269.845V214.181C98.3418 208.077 101.491 205.025 107.79 205.025H137.819C144.021 205.025 147.121 208.077 147.121 214.181V269.845ZM130.715 265.084V219.015H114.821V265.084H130.715ZM232.448 205.025L216.555 279.146H201.906L193.923 238.204L185.939 279.146H171.438L155.544 205.025H171.584L179.641 252.267L187.624 205.025H200.368L208.352 252.267L216.408 205.025H232.448ZM287.38 235.934H270.754V219.015L257.497 219.308V279H240.725V205.025H257.497V207.735C260.964 207.101 264.406 206.466 267.824 205.831C271.975 205.099 275.441 204.732 278.225 204.732C284.328 204.732 287.38 207.735 287.38 213.741V235.934ZM344.655 269.845C344.655 275.948 341.506 279 335.207 279H306.276C299.978 279 296.828 275.948 296.828 269.845V214.181C296.828 208.077 299.978 205.025 306.276 205.025H335.207C341.506 205.025 344.655 208.077 344.655 214.181V241.354L340.041 245.968H312.868V266.695H328.615V254.391H344.655V269.845ZM328.615 235.055V217.33H312.868V235.055H328.615ZM405.959 279H389.26V276.437C377.932 278.438 371.584 279.439 370.217 279.439C366.018 279.439 362.722 278.219 360.329 275.777C357.937 273.287 356.74 269.918 356.74 265.67V219.894C356.74 213.888 358.889 209.713 363.186 207.369C366.311 205.611 371.047 204.732 377.395 204.732C378.811 204.732 380.861 204.781 383.547 204.879C386.232 204.977 388.137 205.025 389.26 205.025V164.376H405.959V279ZM389.26 264.571V219.015H378.933C375.222 219.015 373.366 220.87 373.366 224.581V259.957C373.366 263.57 375.124 265.377 378.64 265.377C379.47 265.377 383.01 265.108 389.26 264.571ZM506.154 268.526C506.154 275.509 502.663 279 495.681 279H449.904V164.376H495.388C502.175 164.376 505.568 167.892 505.568 174.923V204.439C505.568 208.346 504.348 211.373 501.906 213.521C501.564 213.814 498.586 215.694 492.971 219.161C498.781 222.726 501.857 224.679 502.199 225.021C504.836 227.315 506.154 230.465 506.154 234.469V268.526ZM488.503 206.563V178.805H467.043V212.423H480.227L488.503 206.563ZM488.942 264.571V231.905L480.52 226.339H467.043V264.571H488.942ZM568.85 205.025L550.319 278.048L543.215 306.026H526.076L533.767 278.414L515.017 205.025H532.229L541.97 253.658L551.711 205.025H568.85Z" fill="white"/>
</g>
</g>
<defs>
<filter id="filter0_d" x="762" y="0" width="340.807" height="265.752" filterUnits="userSpaceOnUse" color-interpolation-filters="sRGB">
<feFlood flood-opacity="0" result="BackgroundImageFix"/>
<feColorMatrix in="SourceAlpha" type="matrix" values="0 0 0 0 0 0 0 0 0 0 0 0 0 0 0 0 0 0 127 0"/>
<feOffset dy="4"/>
<feGaussianBlur stdDeviation="2"/>
<feColorMatrix type="matrix" values="0 0 0 0 0 0 0 0 0 0 0 0 0 0 0 0 0 0 0.25 0"/>
<feBlend mode="normal" in2="BackgroundImageFix" result="effect1_dropShadow"/>
<feBlend mode="normal" in="SourceGraphic" in2="effect1_dropShadow" result="shape"/>
</filter>
<filter id="filter1_d" x="762.453" y="257.301" width="298.684" height="99.8164" filterUnits="userSpaceOnUse" color-interpolation-filters="sRGB">
<feFlood flood-opacity="0" result="BackgroundImageFix"/>
<feColorMatrix in="SourceAlpha" type="matrix" values="0 0 0 0 0 0 0 0 0 0 0 0 0 0 0 0 0 0 127 0"/>
<feOffset dy="4"/>
<feGaussianBlur stdDeviation="2"/>
<feColorMatrix type="matrix" values="0 0 0 0 0 0 0 0 0 0 0 0 0 0 0 0 0 0 0.25 0"/>
<feBlend mode="normal" in2="BackgroundImageFix" result="effect1_dropShadow"/>
<feBlend mode="normal" in="SourceGraphic" in2="effect1_dropShadow" result="shape"/>
</filter>
<filter id="filter2_d" x="568" y="84" width="329.5" height="274.5" filterUnits="userSpaceOnUse" color-interpolation-filters="sRGB">
<feFlood flood-opacity="0" result="BackgroundImageFix"/>
<feColorMatrix in="SourceAlpha" type="matrix" values="0 0 0 0 0 0 0 0 0 0 0 0 0 0 0 0 0 0 127 0"/>
<feOffset dy="4"/>
<feGaussianBlur stdDeviation="2"/>
<feColorMatrix type="matrix" values="0 0 0 0 0 0 0 0 0 0 0 0 0 0 0 0 0 0 0.25 0"/>
<feBlend mode="normal" in2="BackgroundImageFix" result="effect1_dropShadow"/>
<feBlend mode="normal" in="SourceGraphic" in2="effect1_dropShadow" result="shape"/>
</filter>
<filter id="filter3_d" x="568" y="84" width="187" height="81" filterUnits="userSpaceOnUse" color-interpolation-filters="sRGB">
<feFlood flood-opacity="0" result="BackgroundImageFix"/>
<feColorMatrix in="SourceAlpha" type="matrix" values="0 0 0 0 0 0 0 0 0 0 0 0 0 0 0 0 0 0 127 0"/>
<feOffset dy="4"/>
<feGaussianBlur stdDeviation="2"/>
<feColorMatrix type="matrix" values="0 0 0 0 0 0 0 0 0 0 0 0 0 0 0 0 0 0 0.25 0"/>
<feBlend mode="normal" in2="BackgroundImageFix" result="effect1_dropShadow"/>
<feBlend mode="normal" in="SourceGraphic" in2="effect1_dropShadow" result="shape"/>
</filter>
<filter id="filter4_d" x="27.6914" y="164.376" width="545.158" height="149.65" filterUnits="userSpaceOnUse" color-interpolation-filters="sRGB">
<feFlood flood-opacity="0" result="BackgroundImageFix"/>
<feColorMatrix in="SourceAlpha" type="matrix" values="0 0 0 0 0 0 0 0 0 0 0 0 0 0 0 0 0 0 127 0"/>
<feOffset dy="4"/>
<feGaussianBlur stdDeviation="2"/>
<feColorMatrix type="matrix" values="0 0 0 0 0 0 0 0 0 0 0 0 0 0 0 0 0 0 0.25 0"/>
<feBlend mode="normal" in2="BackgroundImageFix" result="effect1_dropShadow"/>
<feBlend mode="normal" in="SourceGraphic" in2="effect1_dropShadow" result="shape"/>
</filter>
<linearGradient id="paint0_linear" x1="949.512" y1="165.572" x2="847.426" y2="85.1285" gradientUnits="userSpaceOnUse">
<stop stop-color="white"/>
<stop offset="1" stop-color="#545454"/>
</linearGradient>
<linearGradient id="paint1_linear" x1="874" y1="235" x2="664" y2="84" gradientUnits="userSpaceOnUse">
<stop/>
<stop offset="1" stop-color="white" stop-opacity="0"/>
</linearGradient>
</defs>
</svg>
